<svg width="48" height="48" viewBox="0 0 48 48" fill="none" xmlns="http://www.w3.org/2000/svg">
<path d="M23.9988 28.5397C26.3111 28.5397 28.5288 27.6211 30.1639 25.986C31.799 24.3508 32.7176 22.1331 32.7176 19.8206C32.7176 17.5081 31.799 15.2904 30.1639 13.6553C28.5288 12.0201 26.3111 11.1015 23.9988 11.1015C21.6864 11.1015 19.4687 12.0201 17.8336 13.6553C16.1985 15.2904 15.2799 17.5081 15.2799 19.8206C15.2799 22.1331 16.1985 24.3508 17.8336 25.986C19.4687 27.6211 21.6864 28.5397 23.9988 28.5397ZM23.9988 28.5397C27.6341 28.54 31.1442 29.8676 33.8698 32.2733C36.5953 34.6789 38.3488 37.9969 38.8008 41.6041C34.6613 45.0987 29.416 47.0108 23.9988 47C18.5815 47.0108 13.3362 45.0987 9.1967 41.6041M23.9988 28.5397C20.3635 28.54 16.8533 29.8676 14.1277 32.2733C11.4022 34.6789 9.64869 37.9969 9.1967 41.6041M9.1967 41.6041C5.58588 38.5675 2.99622 34.4938 1.77885 29.9355C0.561491 25.3773 0.775324 20.5549 2.39136 16.1222C4.0074 11.6896 6.94745 7.86115 10.8129 5.15604C14.6783 2.45092 19.2821 1 24 1C28.7179 1 33.3217 2.45092 37.1871 5.15604C41.0525 7.86115 43.9926 11.6896 45.6086 16.1222C47.2247 20.5549 47.4385 25.3773 46.2211 29.9355C45.0038 34.4938 42.4141 38.5675 38.8033 41.6041" stroke="#495057" stroke-width="2" stroke-linecap="round" stroke-linejoin="round"/>
</svg>
